<?xml version="1.0" encoding="UTF-8"?>
<svg id="Layer_1" data-name="Layer 1" xmlns="http://www.w3.org/2000/svg" xmlns:xlink="http://www.w3.org/1999/xlink" viewBox="0 0 540.42 344.17">
  <defs>
    <style>
      .cls-1 {
        fill: url(#linear-gradient);
      }

      .cls-1, .cls-2, .cls-3, .cls-4, .cls-5, .cls-6, .cls-7, .cls-8, .cls-9, .cls-10, .cls-11, .cls-12 {
        stroke-width: 0px;
      }

      .cls-2 {
        fill: url(#radial-gradient-8);
      }

      .cls-13 {
        fill: #7ebd42;
        font-family: Bauhaus93, 'Bauhaus 93';
        font-size: 52.32px;
      }

      .cls-3 {
        fill: url(#linear-gradient-2);
      }

      .cls-4 {
        fill: url(#radial-gradient-2);
      }

      .cls-5 {
        fill: url(#radial-gradient-7);
      }

      .cls-6 {
        fill: url(#linear-gradient-3);
      }

      .cls-7 {
        fill: url(#radial-gradient-5);
      }

      .cls-8 {
        fill: url(#radial-gradient);
      }

      .cls-9 {
        fill: url(#radial-gradient-6);
      }

      .cls-10 {
        fill: url(#radial-gradient-3);
      }

      .cls-11 {
        fill: url(#linear-gradient-4);
      }

      .cls-12 {
        fill: url(#radial-gradient-4);
      }
    </style>
    <radialGradient id="radial-gradient" cx="3000.73" cy="-1043.45" fx="3000.73" fy="-1043.45" r="24.87" gradientTransform="translate(-934.44 -2840.88) rotate(90)" gradientUnits="userSpaceOnUse">
      <stop offset="0" stop-color="#d3dd28"/>
      <stop offset=".02" stop-color="#ccda2a"/>
      <stop offset=".14" stop-color="#aed033"/>
      <stop offset=".26" stop-color="#99c93a"/>
      <stop offset=".37" stop-color="#8dc53e"/>
      <stop offset=".48" stop-color="#89c440"/>
      <stop offset=".52" stop-color="#84c03f"/>
      <stop offset=".58" stop-color="#76b73e"/>
      <stop offset=".64" stop-color="#5fa73d"/>
      <stop offset=".7" stop-color="#3f923b"/>
      <stop offset=".76" stop-color="#167638"/>
      <stop offset=".78" stop-color="#086d38"/>
      <stop offset=".98" stop-color="#0a5229"/>
      <stop offset="1" stop-color="#0b5028"/>
    </radialGradient>
    <radialGradient id="radial-gradient-2" cx="2990.02" cy="-1079.95" fx="2990.02" fy="-1079.95" r="43.32" gradientTransform="translate(-934.44 -2840.88) rotate(90)" gradientUnits="userSpaceOnUse">
      <stop offset="0" stop-color="#e5e319"/>
      <stop offset=".19" stop-color="#b7d32c"/>
      <stop offset=".41" stop-color="#89c440"/>
      <stop offset=".47" stop-color="#84c03f"/>
      <stop offset=".54" stop-color="#76b73e"/>
      <stop offset=".61" stop-color="#5fa73d"/>
      <stop offset=".68" stop-color="#3f923b"/>
      <stop offset=".76" stop-color="#167638"/>
      <stop offset=".78" stop-color="#086d38"/>
      <stop offset=".98" stop-color="#0a5229"/>
      <stop offset="1" stop-color="#0b5028"/>
    </radialGradient>
    <linearGradient id="linear-gradient" x1="2996.55" y1="-1057.89" x2="3007.25" y2="-1072.18" gradientTransform="translate(-934.44 -2840.88) rotate(90)" gradientUnits="userSpaceOnUse">
      <stop offset="0" stop-color="#f6ec45"/>
      <stop offset=".11" stop-color="#f0e944"/>
      <stop offset=".27" stop-color="#dfe244"/>
      <stop offset=".44" stop-color="#c3d744"/>
      <stop offset=".63" stop-color="#9dc843"/>
      <stop offset=".78" stop-color="#78b943"/>
    </linearGradient>
    <radialGradient id="radial-gradient-3" cx="1777.99" cy="-3949.14" fx="1777.99" fy="-3949.14" r="24.87" gradientTransform="translate(1906.44 -3775.32) rotate(-180)" xlink:href="#radial-gradient"/>
    <radialGradient id="radial-gradient-4" cx="1767.29" cy="-3985.65" fx="1767.29" fy="-3985.65" r="43.32" gradientTransform="translate(1906.44 -3775.32) rotate(-180)" xlink:href="#radial-gradient-2"/>
    <linearGradient id="linear-gradient-2" x1="1773.81" y1="-3963.59" x2="1784.51" y2="-3977.88" gradientTransform="translate(1906.44 -3775.32) rotate(-180)" xlink:href="#linear-gradient"/>
    <radialGradient id="radial-gradient-5" cx="-1127.71" cy="-2726.41" fx="-1127.71" fy="-2726.41" r="24.87" gradientTransform="translate(2840.88 -934.44) rotate(-90)" xlink:href="#radial-gradient"/>
    <radialGradient id="radial-gradient-6" cx="-1138.41" cy="-2762.91" fx="-1138.41" fy="-2762.91" r="43.32" gradientTransform="translate(2840.88 -934.44) rotate(-90)" xlink:href="#radial-gradient-2"/>
    <linearGradient id="linear-gradient-3" x1="-1131.89" y1="-2740.85" x2="-1121.19" y2="-2755.14" gradientTransform="translate(2840.88 -934.44) rotate(-90)" xlink:href="#linear-gradient"/>
    <radialGradient id="radial-gradient-7" cx="95.03" cy="179.29" fx="95.03" fy="179.29" r="24.87" gradientTransform="matrix(1,0,0,1,0,0)" xlink:href="#radial-gradient"/>
    <radialGradient id="radial-gradient-8" cx="84.33" cy="142.78" fx="84.33" fy="142.78" r="43.32" gradientTransform="matrix(1,0,0,1,0,0)" xlink:href="#radial-gradient-2"/>
    <linearGradient id="linear-gradient-4" x1="90.85" y1="164.84" x2="101.55" y2="150.55" gradientTransform="matrix(1,0,0,1,0,0)" xlink:href="#linear-gradient"/>
  </defs>
  <g>
    <g>
      <path class="cls-8" d="m115.63,152.98c.58,16.23,19.75,15.11,20.1,24.41,2-9.2-16.17-10.67-20.1-24.41Z"/>
      <path class="cls-4" d="m135.73,177.39h0s8.05-9.78.52-22.35c-7.53-12.57-15.45-7.72-15.45-7.72,9.84,9.56,13.06,20.86,13.06,20.86,0,0-18.92-34.95-34.23-20.81,10.56-2.7,15.99,5.61,15.99,5.61.11,3.04.87,5.48,2.04,7.48-1.17-2.01-1.93-4.44-2.04-7.48,3.93,13.74,22.1,15.21,20.1,24.41Z"/>
      <path class="cls-1" d="m136.37,175.52c1.07-1.85,2.59-5.23,2.59-9.54,0-3.6-1.06-7.2-3.15-10.69-.22-.37-.45-.72-.67-1.07-2.32.51-4.25,1.56-5.84,3.02,3.62,5.94,5.02,10.72,5.04,10.79.38,1.59.34,2.71.34,2.71,0,0-1.15-2.1-1.27-2.33-.05-.1-2.35-4.29-5.94-9.15-1.07,1.43-1.94,3.09-2.62,4.88,1.16.86,2.35,1.66,3.5,2.44,4.13,2.79,7.71,5.21,8.01,8.93Z"/>
    </g>
    <g>
      <path class="cls-10" d="m135.32,180.44c-16.23.58-15.11,19.75-24.41,20.1,9.2,2,10.67-16.17,24.41-20.1Z"/>
      <path class="cls-12" d="m110.91,200.54h0s9.78,8.05,22.35.52c12.57-7.53,7.72-15.45,7.72-15.45-9.56,9.84-20.86,13.06-20.86,13.06,0,0,34.95-18.92,20.81-34.23,2.7,10.56-5.61,15.99-5.61,15.99-3.04.11-5.48.87-7.48,2.04,2.01-1.17,4.44-1.93,7.48-2.04-13.74,3.93-15.21,22.1-24.41,20.1Z"/>
      <path class="cls-3" d="m112.78,201.18c1.85,1.07,5.23,2.59,9.54,2.59,3.6,0,7.2-1.06,10.69-3.15.37-.22.72-.45,1.07-.67-.51-2.32-1.56-4.25-3.02-5.84-5.94,3.62-10.72,5.02-10.79,5.04-1.59.38-2.71.34-2.71.34,0,0,2.1-1.15,2.33-1.27.1-.05,4.29-2.35,9.15-5.94-1.43-1.07-3.09-1.94-4.88-2.62-.86,1.16-1.66,2.35-2.44,3.5-2.79,4.13-5.21,7.71-8.93,8.01Z"/>
    </g>
    <g>
      <path class="cls-7" d="m107.86,200.13c-.58-16.23-19.75-15.11-20.1-24.41-2,9.2,16.17,10.67,20.1,24.41Z"/>
      <path class="cls-9" d="m87.76,175.73h0s-8.05,9.78-.52,22.35c7.53,12.57,15.45,7.72,15.45,7.72-9.84-9.56-13.06-20.86-13.06-20.86,0,0,18.92,34.95,34.23,20.81-10.56,2.7-15.99-5.61-15.99-5.61-.11-3.04-.87-5.48-2.04-7.48,1.17,2.01,1.93,4.44,2.04,7.48-3.93-13.74-22.1-15.21-20.1-24.41Z"/>
      <path class="cls-6" d="m87.12,177.59c-1.07,1.85-2.59,5.23-2.59,9.54,0,3.6,1.06,7.2,3.15,10.68.22.37.45.72.67,1.07,2.32-.51,4.25-1.56,5.84-3.02-3.62-5.94-5.02-10.72-5.04-10.79-.38-1.59-.34-2.71-.34-2.71,0,0,1.15,2.1,1.27,2.33.05.1,2.35,4.29,5.94,9.15,1.07-1.43,1.94-3.09,2.62-4.88-1.16-.86-2.35-1.66-3.5-2.44-4.13-2.79-7.71-5.21-8.01-8.93Z"/>
    </g>
    <g>
      <path class="cls-5" d="m88.17,172.67c16.23-.58,15.11-19.75,24.41-20.1-9.2-2-10.67,16.17-24.41,20.1Z"/>
      <path class="cls-2" d="m112.57,152.57h0s-9.78-8.05-22.35-.52c-12.57,7.53-7.72,15.45-7.72,15.45,9.56-9.84,20.86-13.06,20.86-13.06,0,0-34.95,18.92-20.81,34.23-2.7-10.56,5.61-15.99,5.61-15.99,3.04-.11,5.48-.87,7.48-2.04-2.01,1.17-4.44,1.93-7.48,2.04,13.74-3.93,15.21-22.1,24.41-20.1Z"/>
      <path class="cls-11" d="m110.71,151.93c-1.85-1.07-5.23-2.59-9.54-2.59-3.6,0-7.2,1.06-10.69,3.15-.37.22-.72.45-1.07.67.51,2.32,1.56,4.25,3.02,5.84,5.94-3.62,10.72-5.02,10.79-5.04,1.59-.38,2.71-.34,2.71-.34,0,0-2.1,1.15-2.33,1.27-.1.05-4.29,2.35-9.15,5.94,1.43,1.07,3.09,1.94,4.88,2.62.86-1.16,1.66-2.35,2.44-3.5,2.79-4.13,5.21-7.71,8.93-8.01Z"/>
    </g>
  </g>
  <text class="cls-13" transform="translate(152.88 194.71) scale(.96 1)"><tspan x="0" y="0">IMPRENDITORE</tspan></text>
</svg>